# xmcd
#
# Track frame offsets:
#   150
#   11817
#   24877
#   35795
#   47833
#   65258
#   76205
#   87735
#   99318
#   110833
#   124036
#   140785
#   155442
#   167833
#   181847
#   198642
#   211105
#   228640
#   251112
#   266945
#   279817
#   290620
#   302371
#   314931
#
# Disc length: 4386 seconds
#
# Revision: 0
# Processed by: cddbd v1.4PL0 Copyright (c) Steve Scherf et al.
# Submitted via: uFREEDB 1.6.0
#
DISCID=65112018
DTITLE=Olga Guillot, Maria L. landin - Pasion Bolero
DYEAR=1999
DGENRE=Blues
TTITLE0=Amar y vivir
TTITLE1=Sera por eso
TTITLE2=Dos almas
TTITLE3=Amor ciego
TTITLE4=Que te valla bien
TTITLE5=Esta noche corazon
TTITLE6=Aunque tengas razon
TTITLE7=Que mas puedo pedir
TTITLE8=Falsa
TTITLE9=Cancion del alma
TTITLE10=Nosotros
TTITLE11=Miseria
TTITLE12=Aprendiz de paloma
TTITLE13=Adoro
TTITLE14=Contigo en la distancia
TTITLE15=Cuando salga al escenario
TTITLE16=Esta tarde vi llover
TTITLE17=La gloria eres tu
TTITLE18=Me muero, me muero
TTITLE19=Mienteme
TTITLE20=Prueba
TTITLE21=Que sabes tu
TTITLE22=Tu me acostumbraste
TTITLE23=Voy
EXTD=
EXTT0=
EXTT1=
EXTT2=
EXTT3=
EXTT4=
EXTT5=
EXTT6=
EXTT7=
EXTT8=
EXTT9=
EXTT10=
EXTT11=
EXTT12=
EXTT13=
EXTT14=
EXTT15=
EXTT16=
EXTT17=
EXTT18=
EXTT19=
EXTT20=
EXTT21=
EXTT22=
EXTT23=
PLAYORDER=
